<svg xmlns="http://www.w3.org/2000/svg" width="17.361" height="17.719" viewBox="0 0 17.361 17.719"><path d="M.005,8.871A8.8,8.8,0,0,1,8.405.027a8.858,8.858,0,0,1,6.361,2.182c-.723.8-1.46,1.582-2.246,2.318C10.968,3.584,9.1,2.865,7.284,3.5a5.6,5.6,0,1,0,3.769,10.527,4.895,4.895,0,0,0,2.876-3.354c-1.692-.034-3.384-.013-5.075-.059,0-1.006-.008-2.009,0-3.016,2.821,0,5.646-.013,8.471.013A10.011,10.011,0,0,1,15.528,14.7a8.737,8.737,0,0,1-9.55,2.546A8.853,8.853,0,0,1,.005,8.871Z" transform="translate(0 0)" fill="#fff"/></svg>