<svg id="Pin_Copy_2" data-name="Pin Copy 2" xmlns="http://www.w3.org/2000/svg" width="38" height="56" viewBox="0 0 38 56">
  <defs>
    <style>
      .cls-1, .cls-2, .cls-3 {
        fill: none;
      }

      .cls-1 {
        stroke: #2fbcc0;
      }

      .cls-1, .cls-3 {
        stroke-linecap: square;
        stroke-miterlimit: 10;
        stroke-width: 2px;
      }

      .cls-3 {
        stroke: #29abe2;
      }

      .cls-4 {
        fill: #29abe2;
      }

      .cls-5 {
        fill: #fff;
      }
    </style>
  </defs>
  <g id="ic-pin">
    <g id="Line">
      <path id="Line-2" data-name="Line" class="cls-1" d="M1,.524V21.5" transform="translate(18 25)"/>
      <path id="Line-3" data-name="Line" class="cls-2" d="M1,.524V21.5" transform="translate(18 25)"/>
    </g>
    <g id="Line-4" data-name="Line">
      <path id="Line-5" data-name="Line" class="cls-3" d="M1,.521V29" transform="translate(18 25)"/>
      <path id="Line-6" data-name="Line" class="cls-2" d="M1,.521V29" transform="translate(18 25)"/>
    </g>
    <g id="Oval">
      <circle id="Oval-2" data-name="Oval" class="cls-4" cx="19" cy="19" r="19"/>
      <circle id="Oval-3" data-name="Oval" class="cls-2" cx="19" cy="19" r="19"/>
    </g>
    <g id="ic_suitCase" transform="translate(9 11)">
      <g id="Group">
        <path id="Shape" class="cls-5" d="M1.873,15A1.874,1.874,0,0,1,0,13.126V4.375A1.875,1.875,0,0,1,1.873,2.5H6.25V1.875A1.874,1.874,0,0,1,8.123,0h3.754A1.875,1.875,0,0,1,13.75,1.875V2.5h4.378A1.873,1.873,0,0,1,20,4.375v8.751A1.875,1.875,0,0,1,18.128,15Z"/>
      </g>
    </g>
    <ellipse id="Oval_3" data-name="Oval 3" class="cls-4" cx="4" cy="1.5" rx="4" ry="1.5" transform="translate(15 53)"/>
  </g>
</svg>
